<svg width="77" height="77" viewBox="0 0 77 77" fill="none" xmlns="http://www.w3.org/2000/svg">
<path d="M6 40.2V6H29.4V40.2H6Z" fill="white"/>
<path d="M47.4 18.6V6H70.8V18.6H47.4Z" fill="white"/>
<path d="M47.4 70.8V36.6H70.8V70.8H47.4Z" fill="white"/>
<path d="M6 70.8V58.2H29.4V70.8H6Z" fill="white"/>
<path fill-rule="evenodd" clip-rule="evenodd" d="M41.4 2.4C41.4 1.07452 42.4745 0 43.8 0H74.4C75.7255 0 76.8 1.07452 76.8 2.4V22.2C76.8 23.5255 75.7255 24.6 74.4 24.6H43.8C42.4745 24.6 41.4 23.5255 41.4 22.2V2.4ZM47.4 6V18.6H70.8V6H47.4ZM41.4 33C41.4 31.6745 42.4745 30.6 43.8 30.6H74.4C75.7255 30.6 76.8 31.6745 76.8 33V74.4C76.8 75.7255 75.7255 76.8 74.4 76.8H43.8C42.4745 76.8 41.4 75.7255 41.4 74.4V33ZM47.4 36.6V70.8H70.8V36.6H47.4Z" fill="white"/>
<path fill-rule="evenodd" clip-rule="evenodd" d="M33 0H2.4C1.07452 0 0 1.07452 0 2.4V43.8C0 45.1255 1.07452 46.2 2.4 46.2H33C34.3255 46.2 35.4 45.1255 35.4 43.8V2.4C35.4 1.07452 34.3255 0 33 0ZM6 6V40.2H29.4V6H6Z" fill="white"/>
<path fill-rule="evenodd" clip-rule="evenodd" d="M33 52.2H2.4C1.07452 52.2 0 53.2745 0 54.6V74.4C0 75.7255 1.07452 76.8 2.4 76.8H33C34.3255 76.8 35.4 75.7255 35.4 74.4V54.6C35.4 53.2745 34.3255 52.2 33 52.2ZM6 58.2V70.8H29.4V58.2H6Z" fill="white"/>
</svg>
